<svg width="667" height="667" viewBox="0 0 667 667" fill="none" xmlns="http://www.w3.org/2000/svg">
<path d="M435.765 0H231.25C44.4437 0 0 44.4437 0 230.902V435.417C0 622.221 44.098 666.667 230.902 666.667H435.417C622.223 666.667 666.667 622.569 666.667 435.763V231.25C666.667 44.4437 622.569 0 435.765 0ZM538.194 475.694H489.583C471.181 475.694 465.625 460.763 432.64 427.777C403.819 400 391.667 396.527 384.375 396.527C374.306 396.527 371.527 399.304 371.527 413.194V456.944C371.527 468.75 367.708 475.694 336.806 475.694C306.819 473.679 277.74 464.569 251.963 449.115C226.186 433.661 204.449 412.304 188.542 386.804C150.779 339.801 124.504 284.635 111.806 225.694C111.806 218.402 114.583 211.804 128.473 211.804H177.083C189.583 211.804 194.098 217.36 198.958 230.208C222.569 299.652 262.848 360.069 279.167 360.069C285.417 360.069 288.194 357.292 288.194 341.667V270.138C286.11 237.5 268.75 234.721 268.75 222.917C268.979 219.802 270.412 216.9 272.746 214.825C275.08 212.75 278.13 211.667 281.25 211.804H357.64C368.056 211.804 371.527 217.013 371.527 229.513V326.042C371.527 336.458 376.042 339.929 379.167 339.929C385.417 339.929 390.277 336.458 401.735 325C426.358 294.973 446.477 261.52 461.458 225.694C462.987 221.383 465.886 217.691 469.711 215.183C473.536 212.675 478.077 211.488 482.64 211.804H531.25C545.833 211.804 548.958 219.096 545.833 229.513C528.146 269.123 506.262 306.723 480.556 341.667C475.348 349.652 473.265 353.819 480.556 363.194C485.417 370.485 502.431 384.721 513.89 398.263C530.556 414.887 544.395 434.122 554.86 455.208C559.027 468.75 552.083 475.694 538.194 475.694Z" fill="white"/>
</svg>
